<svg xmlns="http://www.w3.org/2000/svg" viewBox="0 0 115.04 51.46"><defs><style>.cls-1{fill:#e7ae22;}.cls-2{fill:#231f20;}.cls-3{fill:#9b8f98;}.cls-4{fill:#d5c869;}</style></defs><title>logo1</title><g id="Layer_2" data-name="Layer 2"><g id="Layer_1-2" data-name="Layer 1"><path class="cls-1" d="M33,30.36H31.83l-6.54-17.8H28L32.47,25.5l4.35-12.94H39.4Z"/><path class="cls-1" d="M49.23,30.12V12.56h2.4V30.12Z"/><path class="cls-1" d="M69.51,14.72v15.4h-2.4V14.72H61.53V12.56H75.35v2.16Z"/><path class="cls-1" d="M92.41,30.12l-1.21-3.7H84.67l-1.3,3.7H80.69l7.13-17.79h.63l6.62,17.79ZM88,16.93,85.3,24.66h5.21Z"/><path class="cls-1" d="M104.38,30.12V12.56h2.4V28h7.93v2.15Z"/><path class="cls-2" d="M6.29,51.46C2.53,51.46,0,48.56,0,44.28s2.57-7.21,6.39-7.21a6.66,6.66,0,0,1,3.9,1.19l-.22,1.4a6.29,6.29,0,0,0-3.7-1.34c-3.05,0-4.94,2.41-4.94,5.92s1.91,5.95,4.92,5.95a6.48,6.48,0,0,0,4-1.45l.2,1.33A7.24,7.24,0,0,1,6.29,51.46Z"/><path class="cls-2" d="M25.09,51.2V37.33h1.38V50h5.35L32,51.2Z"/><path class="cls-2" d="M46,51.2V37.33h1.39V51.2Z"/><path class="cls-2" d="M72.13,51.2,64,39.52V51.2H62.72V37.33H64l7.86,11.31V37.33h1.3V51.2Z"/><path class="cls-2" d="M88.47,51.2V37.33h1.39V51.2Z"/><path class="cls-2" d="M110.83,51.46c-3.76,0-6.29-2.9-6.29-7.18s2.57-7.21,6.39-7.21a6.63,6.63,0,0,1,3.89,1.19l-.22,1.4a6.26,6.26,0,0,0-3.69-1.34c-3.06,0-5,2.41-5,5.92s1.91,5.95,4.93,5.95a6.45,6.45,0,0,0,4-1.45l.2,1.33A7.21,7.21,0,0,1,110.83,51.46Z"/><rect class="cls-3" x="0.58" y="29.09" width="17.39" height="4.74"/><path class="cls-4" d="M17.89,0H16.56c-.25,3.62-.85,7.6-2.95,10.66a6.63,6.63,0,0,1-3.85,2.92,2.4,2.4,0,0,1-1.13,0c-2.44-.65-4-3-4.93-5.19A20.27,20.27,0,0,1,2.63,4.83C2.53,4.39,1.9,0,2,0H.64S-1,18.88,6,24.35H.58v4.74H18V24.35H12.57C19.49,18.88,17.89,0,17.89,0Z"/></g></g></svg>